# AST/ASF file generated using VICON BodyLanguage
# -----------------------------------------------
:version 1.10
:name VICON
:units
  mass 1.0
  length 0.45
  angle deg
:documentation
   .ast/.asf automatically generated from VICON data using
   VICON BodyBuilder and BodyLanguage model FoxedUp or BRILLIANT.MOD
:root
   order TX TY TZ RX RY RZ
   axis XYZ
   position 0 0 0  
   orientation 0 0 0 
:bonedata
  begin
     id 1 
     name lhipjoint
     direction 0.54267 -0.795011 0.271047 
     length 2.39899 
     axis 0 0 0  XYZ
  end
  begin
     id 2 
     name lfemur
     direction 0.34202 -0.939693 0  
     length 7.49701  
     axis 0 0 20  XYZ
    dof rx ry rz
    limits (-160.0 20.0)
           (-70.0 70.0)
           (-60.0 70.0)
  end
  begin
     id 3 
     name ltibia
     direction 0.34202 -0.939693 0   
     length 8.1668   
     axis 0 0 20   XYZ
    dof rx
    limits (-10.0 170.0)
  end
  begin
     id 4 
     name lfoot
     direction 0.0736283 -0.202292 0.976554   
     length 2.13544   
     axis -90 7.62852e-016 20   XYZ
    dof rx rz
    limits (-45.0 90.0)
           (-70.0 20.0)
  end
  begin
     id 5 
     name ltoes
     direction 1.53557e-011 -4.22024e-011 1   
     length 1.07411   
     axis -90 7.62852e-016 20   XYZ
    dof rx
    limits (-90.0 20.0)
  end
  begin
     id 6 
     name rhipjoint
     direction -0.538061 -0.797813 0.272002   
     length 2.39057  
     axis 0 0 0  XYZ 
  end
  begin
     id 7 
     name rfemur
     direction -0.34202 -0.939693 0   
     length 7.50152   
     axis 0 0 -20   XYZ
    dof rx ry rz
    limits (-160.0 20.0)
           (-70.0 70.0)
           (-70.0 60.0)
  end
  begin
     id 8 
     name rtibia
     direction -0.34202 -0.939693 0   
     length 8.05793   
     axis 0 0 -20   XYZ
    dof rx
    limits (-10.0 170.0)
 end
 begin
     id 9 
     name rfoot
     direction -0.0765195 -0.210236 0.974652   
     length 2.28698  
     axis -90 -7.62852e-016 -20   XYZ
    dof rx rz
    limits (-45.0 90.0)
           (-20.0 70.0)
  end
  begin
     id 10 
     name rtoes
     direction -1.53542e-011 -4.21847e-011 1   
     length 1.14762   
     axis -90 -7.62852e-016 -20   XYZ
    dof rx
    limits (-90.0 20.0)
  end
  begin
     id 11 
     name lowerback
     direction -0.0217239 0.996592 -0.0795765   
     length 2.08176   
     axis 0 0 0   XYZ
    dof rx ry rz
    limits (-20.0 45.0)
           (-30.0 30.0)
           (-30.0 30.0)
  end
  begin
     id 12 
     name upperback
     direction -0.00563773 0.999651 -0.0258155   
     length 2.08898   
     axis 0 0 0   XYZ
    dof rx ry rz
    limits (-20.0 45.0)
           (-30.0 30.0)
           (-30.0 30.0)
  end
  begin
     id 13 
     name thorax
     direction 0.0032706 0.999923 0.0119599   
     length 2.0968   
     axis 0 0 0   XYZ
    dof rx ry rz
    limits (-20.0 45.0)
           (-30.0 30.0)
           (-30.0 30.0)
  end
  begin
     id 14 
     name lowerneck
     direction -0.0285886 0.99568 0.0883427   
     length 1.81272   
     axis 0 0 0   XYZ
    dof rx ry rz
    limits (-20.0 45.0)
           (-30.0 30.0)
           (-30.0 30.0)
  end
  begin
     id 15 
     name upperneck
     direction 0.0807535 0.97985 -0.18268   
     length 1.82518   
     axis 0 0 0   XYZ
    dof rx ry rz
    limits (-20.0 45.0)
           (-30.0 30.0)
           (-30.0 30.0)
  end
  begin
     id 16
     name head
     direction 0.0236605 0.997053 -0.0729767  
     length 1.84443  
     axis 0 0 0   XYZ
    dof rx ry rz
    limits (-20.0 45.0)
           (-30.0 30.0)
           (-30.0 30.0)
  end
  begin
     id 17 
     name lclavicle
     direction 0.918986 0.39378 -0.0200683  
     length 3.27822  
     axis 0 0 0   XYZ
    dof ry rz
    limits (-20.0 10.0)
           (0.0 20.0)
  end
  begin
     id 18 
     name lhumerus
     direction 1 -4.4897e-011 2.09544e-027   
     length 5.5568   
     axis 180 -30 -90   XYZ
    dof rx ry rz
    limits (-60.0 90.0)
           (-90.0 90.0)
           (-90.0 90.0)
  end
  begin
     id 19
     name lradius
     direction 1 -4.48957e-011 -1.27696e-026   
     length 3.63979   
     axis 180 -30 -90   XYZ
    dof rx
    limits (-10.0 170.0)
  end
  begin
     id 20
     name lwrist
     direction 1 -4.49001e-011 -1.49001e-026   
     length 1.8199   
     axis 9.0955e-015 90 90   XYZ
    dof ry
    limits (-180.0 0.0)
 end
  begin
     id 21 
     name lhand
     direction 1 -4.48709e-011 -2.9758e-026   
     length 0.569419   
     axis 1.90115e-014 90 90   XYZ
    dof rx rz
    limits (-90.0 90.0)
           (-45.0 45.0)
  end
  begin
     id 22 
     name lfingers
     direction 1 -4.49175e-011 -5.96505e-026   
     length 0.45908   
     axis 3.80223e-014 90 90   XYZ
    dof rx
    limits (0.0 90.0)
  end
  begin
     id 23
     name lthumb
     direction 0.707107 -6.34864e-011 0.707107   
     length 0.65915   
     axis -90 45 -3.84942e-014   XYZ
    dof rx rz
    limits (-45.0 45.0)
           (-45.0 45.0)
  end
  begin
     id 24 
     name rclavicle
     direction -0.911913 0.396426 -0.106115   
     length 3.46301  
     axis 0 0 0   XYZ 
    dof ry rz
    limits (-10.0 20.0)
           (-20.0 0.0)
  end
  begin
     id 25 
     name rhumerus
     direction -1 -4.48965e-011 7.78516e-028  
     length 5.34339   
     axis 180 30 90   XYZ
    dof rx ry rz
    limits (-90.0 60.0)
           (-90.0 90.0)
           (-90.0 90.0)
  end
  begin
     id 26 
     name rradius
     direction -1 -4.48948e-011 -5.79823e-027   
     length 3.65101   
     axis 180 30 90   XYZ
    dof rx
    limits (-10.0 170.0)
  end
  begin
     id 27 
     name rwrist
     direction -1 -4.48995e-011 -1.48996e-026   
     length 1.8255   
     axis 9.0955e-015 -90 -90   XYZ
    dof ry
    limits (-180.0 0.0)
  end
  begin
     id 28
     name rhand
     direction -1 -4.48957e-011 -2.97937e-026   
     length 0.694249   
     axis 1.90115e-014 -90 -90   XYZ
    dof rx rz
    limits (-90.0 90.0)
           (-45.0 45.0)
  end
  begin
     id 29
     name rfingers
     direction -1 -4.4898e-011 -5.95943e-026   
     length 0.559721   
     axis 3.80223e-014 -90 -90   XYZ
    dof rx
    limits (0.0 90.0)
  end
  begin
     id 30
     name rthumb
     direction -0.707107 -6.34969e-011 0.707107   
     length 0.803651   
     axis -90 -45 3.84942e-014   XYZ
    dof rx rz
    limits (-45.0 45.0)
           (-45.0 45.0)
  end
:hierarchy
  begin
    root lhipjoint rhipjoint lowerback
    lhipjoint lfemur
    lfemur ltibia
    ltibia lfoot
    lfoot ltoes
    rhipjoint rfemur
    rfemur rtibia
    rtibia rfoot
    rfoot rtoes
    lowerback upperback
    upperback thorax
    thorax lowerneck lclavicle rclavicle
    lowerneck upperneck
    upperneck head
    lclavicle lhumerus
    lhumerus lradius
    lradius lwrist
    lwrist lhand lthumb
    lhand lfingers
    rclavicle rhumerus
    rhumerus rradius
    rradius rwrist
    rwrist rhand rthumb
    rhand rfingers
  end

#!OML:ASF H:\Terrain\Walking\May29\JustinRory\rory.ASF
:FULLY-SPECIFIED
:DEGREES
127
root 14.2259 12.7903 4.47969 186.122 -9.94671 177.201
lowerback 52.6265 8.08081 11.6002
upperback 7.08182 11.9967 -5.36975
thorax -9.84873 4.21726 -16.3309
lowerneck 5.09031 9.03204 26.5057
upperneck 28.2142 15.0638 -20.6944
head 12.267 7.93487 -11.3153
rclavicle 8.42847e-014 -1.11319e-013
rhumerus -5.75137 -23.1531 -51.6503
rradius 39.5469
rwrist 6.98404
rhand -6.6091 391.131
rfingers 7.12502
rthumb 19.2467 2.06317
lclavicle 8.42847e-014 -1.11319e-013
lhumerus -4.67836 -12.4405 70.3261
lradius 79.6309
lwrist 13.4408
lhand -24.2034 24.4746
lfingers 7.12502
lthumb 2.28094 54.4421
rfemur -70.1158 -7.96917 4.9946
rtibia 102.747
rfoot -28.9946 -10.574
rtoes 4.08966
lfemur -70.2513 11.8749 -1.01936
ltibia 89.0382
lfoot -17.5877 -10.06
ltoes -32.3411
128
root 14.2912 12.7653 4.43565 186.397 -9.55992 177.23
lowerback 52.234 8.96081 10.4835
upperback 7.08156 12.441 -5.28793
thorax -9.89229 4.42807 -15.8961
lowerneck 5.28619 9.38192 25.5453
upperneck 27.9712 15.6396 -20.6896
head 12.1974 8.11252 -11.0293
rclavicle 4.45278e-014 -2.38542e-014
rhumerus -5.74508 -21.2787 -51.9876
rradius 40.5464
rwrist 6.34409
rhand -7.38555 389.82
rfingers 7.12502
rthumb 18.5 0.679598
lclavicle 4.45278e-014 -2.38542e-014
lhumerus -5.07506 -11.8233 70.4335
lradius 80.9556
lwrist 13.1019
lhand -21.5599 31.3804
lfingers 7.12502
lthumb 4.83372 61.3053
rfemur -70.6947 -6.87405 5.19229
rtibia 103.155
rfoot -28.6845 -12.0269
rtoes 0.724956
lfemur -70.3556 13.2234 -1.1596
ltibia 89.3869
lfoot -18.1404 -9.99624
ltoes -32.2467
129
root 14.3283 12.7525 4.39552 186.73 -10.3203 176.899
lowerback 51.6002 8.97405 9.87815
upperback 7.27235 12.0973 -5.22747
thorax -9.79122 4.3011 -15.3843
lowerneck 5.69365 9.7216 24.6278
upperneck 27.3091 16.3673 -21.3316
head 12.0267 8.3444 -11.0083
rclavicle -4.77083e-015 3.97569e-014
rhumerus -5.38117 -19.152 -52.2263
rradius 41.334
rwrist 5.47753
rhand -8.17159 388.972
rfingers 7.12502
rthumb 17.7437 -0.238936
lclavicle -4.77083e-015 3.97569e-014
lhumerus -5.65455 -10.7048 70.909
lradius 82.086
lwrist 12.3129
lhand -25.7077 23.2776
lfingers 7.12502
lthumb 0.828047 53.2557
rfemur -70.7008 -7.24859 4.97027
rtibia 103.494
rfoot -29.1231 -12.3368
rtoes 1.96489
lfemur -70.9112 13.3147 -1.74723
ltibia 89.7034
lfoot -18.5807 -9.75522
ltoes -31.462
130
root 14.3658 12.7416 4.35289 186.673 -10.9093 176.993
lowerback 51.0531 8.88138 9.06233
upperback 7.56808 11.481 -4.96355
thorax -9.70962 4.00914 -14.4222
lowerneck 6.62145 10.3935 23.0258
upperneck 25.9353 17.6157 -22.1339
head 11.5629 8.78984 -10.81
rclavicle 4.45278e-014 -9.54166e-014
rhumerus -4.02783 -16.3018 -52.8612
rradius 41.9329
rwrist 5.25118
rhand -8.6136 389.179
rfingers 7.12502
rthumb 17.3184 -0.0693373
lclavicle 4.45278e-014 -9.54166e-014
lhumerus -6.80715 -8.55777 70.4611
lradius 83.8431
lwrist 12.2469
lhand -21.854 29.6041
lfingers 7.12502
lthumb 4.54971 59.5352
rfemur -70.3822 -7.33054 5.2205
rtibia 103.815
rfoot -29.9888 -12.2925
rtoes 3.7655
lfemur -70.9946 13.7147 -1.78841
ltibia 90.0026
lfoot -18.8837 -9.8726
ltoes -29.8733
131
root 14.3654 12.7499 4.31026 186.412 -12.9427 176.913
lowerback 51.0373 8.17146 10.9607
upperback 7.58145 11.6966 -5.25412
thorax -9.26231 4.20981 -15.6972
lowerneck 6.10944 9.86873 24.2799
upperneck 26.4144 16.8152 -22.0045
head 11.7444 8.51776 -11.127
rclavicle 2.00375e-013 -2.13097e-013
rhumerus -6.54205 -16.3801 -51.8855
rradius 42.7554
rwrist 5.34944
rhand -8.77098 389.889
rfingers 7.12502
rthumb 17.1669 0.627053
lclavicle 2.00375e-013 -2.13097e-013
lhumerus -6.70988 -10.4567 71.871
lradius 84.8584
lwrist 10.8246
lhand -21.542 22.0294
lfingers 7.12502
lthumb 4.85105 51.9538
rfemur -69.0251 -9.15213 5.26836
rtibia 104.008
rfoot -30.8846 -12.1907
rtoes 3.72158
lfemur -71.3141 12.4474 -2.03683
ltibia 90.2515
lfoot -19.3416 -9.52782
ltoes -29.1236
132
root 14.3233 12.7841 4.29311 187.278 -14.9313 174.536
lowerback 50.3072 6.80057 9.54064
upperback 8.12195 9.06705 -5.52606
thorax -9.40222 2.99393 -14.2846
lowerneck 7.69426 10.9868 21.5701
upperneck 24.5992 18.6425 -22.7043
head 11.0182 9.19722 -10.5874
rclavicle -2.22639e-014 3.49861e-014
rhumerus -3.67197 -12.1412 -52.684
rradius 42.6817
rwrist 4.85687
rhand -8.41038 390.055
rfingers 7.12502
rthumb 17.5139 0.824023
lclavicle -2.22639e-014 3.49861e-014
lhumerus -8.15435 -6.2658 72.206
lradius 86.0904
lwrist 9.8011
lhand -20.3505 22.7284
lfingers 7.12502
lthumb 6.0014 52.6234
rfemur -68.0584 -12.3209 2.43884
rtibia 104.091
rfoot -30.4225 -12.4159
rtoes -2.27091
lfemur -72.0604 10.0605 -4.96706
ltibia 90.545
lfoot -20.3558 -7.52324
ltoes -30.4861
133
root 14.3777 12.7132 4.23378 186.374 -14.0955 177.712
lowerback 49.6702 7.69656 10.0808
upperback 8.03849 10.5928 -4.65732
thorax -9.05083 3.69772 -14.1051
lowerneck 8.03978 11.2484 21.0324
upperneck 24.0588 19.0997 -23.1131
head 10.86 9.38137 -10.5799
rclavicle 7.95139e-015 -1.31993e-013
rhumerus -3.40324 -10.2295 -52.3146
rradius 43.1337
rwrist 4.00358
rhand -7.24165 389.31
rfingers 7.12502
rthumb 18.6384 0.182504
lclavicle 7.95139e-015 -1.31993e-013
lhumerus -9.06654 -5.36842 72.5028
lradius 87.2118
lwrist 9.51379
lhand -20.2707 22.6951
lfingers 7.12502
lthumb 6.0785 52.5879
rfemur -68.8077 -9.6619 6.24651
rtibia 104.535
rfoot -27.3835 -17.2251
rtoes -16.9405
lfemur -72.0339 13.5398 -1.58116
ltibia 91.2015
lfoot -19.9501 -7.90363
ltoes -31.7248
134
root 14.3693 12.6701 4.2169 187.126 -13.0197 177.435
lowerback 47.9457 8.80448 8.60893
upperback 9.00289 11.0617 -4.42754
thorax -9.08296 3.91228 -13.9008
lowerneck 8.13838 11.6459 20.3462
upperneck 23.4695 19.6842 -23.3976
head 10.7345 9.60812 -10.4488
rclavicle 3.02153e-014 -7.15625e-014
rhumerus -3.19996 -8.60807 -52.2735
rradius 43.7417
rwrist 3.56338
rhand -5.73001 388.804
rfingers 7.12502
rthumb 20.0919 -0.177276
lclavicle 3.02153e-014 -7.15625e-014
lhumerus -9.96443 -4.16964 73.5835
lradius 88.3589
lwrist 8.8523
lhand -20.4043 23.1549
lfingers 7.12502
lthumb 5.9495 53.0514
rfemur -70.1991 -8.93484 5.91814
rtibia 104.738
rfoot -29.9529 -14.5103
rtoes -3.98729
lfemur -72.6003 15.4671 -2.1963
ltibia 91.8697
lfoot -20.3574 -6.64462
ltoes -30.735
135
root 14.372 12.7486 4.16736 186.469 -15.2482 176.302
lowerback 49.5959 8.27838 8.9373
upperback 8.17606 10.6647 -4.84321
thorax -9.02494 3.75792 -13.8066
lowerneck 7.66218 11.3994 21.052
upperneck 23.652 19.3786 -23.5103
head 10.91 9.49023 -10.6597
rclavicle -7.79236e-014 1.94014e-013
rhumerus -5.26375 -8.95681 -52.1527
rradius 45.0189
rwrist 4.51483
rhand -4.67669 389.196
rfingers 7.12502
rthumb 21.104 0.324576
lclavicle -7.79236e-014 1.94014e-013
lhumerus -10.3982 -4.99733 73.3998
lradius 90.0415
lwrist 9.83165
lhand -20.1498 24.198
lfingers 7.12502
lthumb 6.19521 54.0874
rfemur -67.4727 -11.233 4.78785
rtibia 104.436
rfoot -31.8528 -13.1304
rtoes 1.51775
lfemur -71.4957 13.4258 -3.20381
ltibia 91.7275
lfoot -21.3647 -4.70456
ltoes -30.3866
136
root 14.3503 12.717 4.16063 186.593 -14.5289 177.396
lowerback 47.6883 8.27036 8.56711
upperback 9.25467 10.3105 -4.49785
thorax -8.90577 3.57899 -13.6158
lowerneck 7.97777 12.6269 19.1954
upperneck 23.0013 21.0508 -23.5987
head 10.8616 10.1516 -10.0549
rclavicle -3.33958e-014 9.38264e-014
rhumerus -2.94206 -5.40178 -52.1474
rradius 44.6602
rwrist 4.09245
rhand -4.6886 389.529
rfingers 7.12502
rthumb 21.0926 0.656502
lclavicle -3.33958e-014 9.38264e-014
lhumerus -11.8817 -1.52394 74.4646
lradius 91.3477
lwrist 8.448
lhand -19.71 22.9816
lfingers 7.12502
lthumb 6.61978 52.8581
rfemur -68.3958 -10.3071 5.87674
rtibia 104.454
rfoot -31.4917 -13.684
rtoes 0.874606
lfemur -71.9209 15.3936 -2.29058
ltibia 92.4385
lfoot -21.7122 -2.9684
ltoes -31.5089
